<svg width="23" height="22" viewBox="0 0 23 22" fill="none" xmlns="http://www.w3.org/2000/svg">
<path d="M19.7656 9.625V17.875C19.7656 18.3308 19.5763 18.768 19.2393 19.0903C18.9024 19.4127 18.4453 19.5938 17.9688 19.5938H5.03125C4.55469 19.5938 4.09765 19.4127 3.76067 19.0903C3.42369 18.768 3.23438 18.3308 3.23438 17.875V9.625C3.23438 9.16916 3.42369 8.73199 3.76067 8.40966C4.09765 8.08733 4.55469 7.90625 5.03125 7.90625H7.1875C7.47344 7.90625 7.74766 8.0149 7.94985 8.2083C8.15204 8.40169 8.26562 8.664 8.26562 8.9375C8.26562 9.21101 8.15204 9.47331 7.94985 9.6667C7.74766 9.8601 7.47344 9.96875 7.1875 9.96875H5.39062V17.5312H17.6094V9.96875H15.8125C15.5266 9.96875 15.2523 9.8601 15.0502 9.6667C14.848 9.47331 14.7344 9.21101 14.7344 8.9375C14.7344 8.664 14.848 8.40169 15.0502 8.2083C15.2523 8.0149 15.5266 7.90625 15.8125 7.90625H17.9688C18.4453 7.90625 18.9024 8.08733 19.2393 8.40966C19.5763 8.73199 19.7656 9.16916 19.7656 9.625ZM8.66902 6.22961L10.4219 4.55469V11.6875C10.4219 11.961 10.5355 12.2233 10.7377 12.4167C10.9398 12.6101 11.2141 12.7188 11.5 12.7188C11.7859 12.7188 12.0602 12.6101 12.2623 12.4167C12.4645 12.2233 12.5781 11.961 12.5781 11.6875V4.55469L14.331 6.23219C14.4313 6.32811 14.5503 6.40421 14.6814 6.45612C14.8124 6.50804 14.9528 6.53476 15.0946 6.53476C15.2365 6.53476 15.3769 6.50804 15.5079 6.45612C15.639 6.40421 15.758 6.32811 15.8583 6.23219C15.9586 6.13626 16.0382 6.02238 16.0924 5.89705C16.1467 5.77171 16.1746 5.63738 16.1746 5.50172C16.1746 5.36606 16.1467 5.23173 16.0924 5.10639C16.0382 4.98106 15.9586 4.86718 15.8583 4.77125L12.2646 1.33375C12.1644 1.23761 12.0454 1.16133 11.9143 1.10928C11.7833 1.05723 11.6428 1.03044 11.5009 1.03044C11.359 1.03044 11.2185 1.05723 11.0875 1.10928C10.9564 1.16133 10.8374 1.23761 10.7372 1.33375L7.14348 4.77125C7.04319 4.86718 6.96364 4.98106 6.90936 5.10639C6.85509 5.23173 6.82715 5.36606 6.82715 5.50172C6.82715 5.7757 6.94094 6.03846 7.14348 6.23219C7.34601 6.42592 7.62072 6.53476 7.90715 6.53476C8.19358 6.53476 8.46828 6.42592 8.67082 6.23219L8.66902 6.22961Z" fill="#FF6600"/>
</svg>
