<svg width="42" height="40" viewBox="0 0 42 40" fill="none" xmlns="http://www.w3.org/2000/svg">
<path d="M19.9502 1.89838C20.2512 0.980429 21.5497 0.980429 21.8507 1.89838L25.7717 13.8581C25.9063 14.2688 26.2896 14.5465 26.7219 14.5465L39.39 14.547C40.3608 14.547 40.7622 15.7911 39.9744 16.3585L29.7412 23.7284C29.3876 23.983 29.2396 24.4373 29.3753 24.8513L33.2873 36.7866C33.5888 37.7063 32.5381 38.4751 31.7527 37.9095L21.4848 30.5158C21.1358 30.2645 20.6651 30.2645 20.3161 30.5158L10.0482 37.9095C9.26276 38.4751 8.21213 37.7063 8.51358 36.7866L12.4256 24.8513C12.5613 24.4373 12.4133 23.983 12.0597 23.7284L1.82652 16.3585C1.03873 15.7911 1.44006 14.547 2.41089 14.547L15.079 14.5465C15.5113 14.5465 15.8946 14.2688 16.0292 13.8581L19.9502 1.89838Z" fill="#FF6E41" stroke="" stroke-width="2"/>
</svg>
