<svg width="70" height="61" viewBox="0 0 70 61" fill="none" xmlns="http://www.w3.org/2000/svg">
<g clip-path="url(#clip0_126_409)">
<path d="M70 38.7284V36.6793C70 24.8706 60.4272 15.2977 48.6185 15.2977C36.8098 15.2977 27.237 24.8706 27.237 36.6793V38.7284C27.237 50.5371 36.8098 60.1099 48.6185 60.1099C60.4272 60.1099 70 50.5371 70 38.7284Z" fill="#FF6600"/>
<path fill-rule="evenodd" clip-rule="evenodd" d="M48.6185 20.3253C39.4586 20.3253 32.0349 28.1057 32.0349 37.7036C32.0349 47.3014 39.4596 55.0821 48.6185 55.0821C51.2382 55.0862 53.8213 54.437 56.1542 53.1881L60.5545 54.6772L60.6614 49.6494C63.475 46.5352 65.2012 42.3308 65.2012 37.7036C65.2012 28.1048 57.7765 20.3253 48.6176 20.3253" fill="#181A1F"/>
<path fill-rule="evenodd" clip-rule="evenodd" d="M44.8476 20.7767C37.5055 22.5659 32.036 29.4644 32.036 37.7026C32.0326 40.2931 32.5841 42.8513 33.6499 45.1887C40.5089 41.1314 45.1408 33.4227 45.1408 24.5809C45.1408 23.3067 45.0431 22.0346 44.8488 20.7767" fill="#14161A"/>
<path fill-rule="evenodd" clip-rule="evenodd" d="M41.0205 30.0314H47.1661V29.0609H50.0699V30.0314H56.7607V32.6785H54.9495C54.7726 33.6646 54.3262 35.0958 53.5759 36.6578C52.9083 38.0474 51.9977 39.5523 50.8199 40.9573C50.7028 41.0966 50.5718 41.2475 50.4269 41.4097C50.8909 41.7425 51.3749 42.0436 51.8759 42.311C52.5503 42.6707 53.2543 42.9661 53.9792 43.1937L54.5007 43.357L54.3456 43.9032L53.8066 45.7985L53.651 46.346L53.1295 46.1824C52.1732 45.8823 51.2466 45.4864 50.3627 45.0001C49.5933 44.5765 48.858 44.0884 48.1638 43.5405C47.4696 44.0886 46.7341 44.5769 45.9647 45.0006C45.0802 45.4869 44.1531 45.8829 43.1962 46.1832L42.6747 46.3467L42.5191 45.7992L41.9802 43.904L41.8248 43.3577L42.3463 43.1944C43.0713 42.9669 43.7753 42.6713 44.4496 42.3112C44.951 42.0433 45.4353 41.7417 45.8996 41.4083C45.0235 40.4232 44.2424 39.3499 43.5676 38.204C42.7271 36.7818 42.1376 35.4085 41.7734 34.2915L41.5281 33.5375H44.6679L44.8042 33.8989C45.5832 35.9317 46.7215 37.7921 48.1591 39.3824L48.1881 39.3505C48.3116 39.2139 48.4433 39.0617 48.5821 38.8965C49.4702 37.8361 50.2363 36.6699 50.8646 35.4221C51.4033 34.3504 51.7508 33.3893 51.9269 32.6793H40.4754V30.0322L41.0205 30.0314Z" fill="white"/>
<path d="M42.763 24.3601V22.311C42.763 10.5023 33.1902 0.929459 21.3815 0.929459C9.57283 0.929459 0 10.5023 0 22.311V24.3601C0 36.1688 9.57283 45.7416 21.3815 45.7416C33.1902 45.7416 42.763 36.1688 42.763 24.3601Z" fill="url(#paint0_linear_126_409)"/>
<path fill-rule="evenodd" clip-rule="evenodd" d="M21.3815 5.9572C30.5414 5.9572 37.9652 13.7377 37.9652 23.3355C37.9652 32.9333 30.5405 40.7138 21.3815 40.7138C18.7618 40.718 16.1788 40.0689 13.8458 38.82L9.44461 40.3088L9.33766 35.2813C6.52383 32.1672 4.79785 27.9627 4.79785 23.3355C4.79785 13.7367 12.2226 5.9572 21.3815 5.9572Z" fill="#181A1F"/>
<path fill-rule="evenodd" clip-rule="evenodd" d="M19.5045 25.6425H23.222L21.357 19.3505L19.5045 25.6425ZM24.2194 29.007H18.5063L17.5091 32.3963H13.0552L19.3989 14.2745H23.3153L29.7088 32.3985H25.2289L24.2194 29.007Z" fill="white"/>
<path d="M24.591 52.8625C17.3065 53.7583 13.5696 52.0125 11.5679 46.1255C11.3235 53.7643 17.112 60.0186 25.1819 58.9711L25.3781 60.9998L31.2092 54.7514L24.3927 50.8112L24.591 52.8625Z" fill="#181A1F"/>
<path d="M45.4083 8.13723C52.693 7.24266 56.4299 8.98751 58.4312 14.8745C58.6755 7.23573 52.8868 0.981405 44.8171 2.02862L44.6207 0L38.7896 6.24839L45.6061 10.1886L45.4083 8.13723Z" fill="#181A1F"/>
</g>
<defs>
<linearGradient id="paint0_linear_126_409" x1="18.919" y1="-0.46336" x2="23.4882" y2="39.7497" gradientUnits="userSpaceOnUse">
<stop stop-color="#0080FF"/>
<stop offset="1" stop-color="#004284"/>
</linearGradient>
<clipPath id="clip0_126_409">
<rect width="70" height="61" fill="white"/>
</clipPath>
</defs>
</svg>
