<svg width="19" height="17" viewBox="0 0 19 17" fill="none" xmlns="http://www.w3.org/2000/svg">
<path d="M17.4692 5.66333L12.4275 5.26083L10.4587 0.99625C10.1046 0.22 8.89624 0.22 8.54208 0.99625L6.57333 5.27042L1.54208 5.66333C0.625411 5.73042 0.250411 6.78458 0.948328 7.34042L4.77124 10.3879L3.62541 14.9113C3.41708 15.7354 4.38583 16.3871 5.17749 15.9463L9.50041 13.5504L13.8233 15.9558C14.615 16.3967 15.5837 15.745 15.3754 14.9208L14.2296 10.3879L18.0525 7.34042C18.7504 6.78458 18.3858 5.73042 17.4692 5.66333ZM9.50041 11.7583L5.58374 13.9338L6.62541 9.83208L3.16708 7.07208L7.72958 6.70792L9.50041 2.84583L11.2817 6.7175L15.8442 7.08167L12.3858 9.84167L13.4275 13.9433L9.50041 11.7583Z" fill="#003366"/>
</svg>
